<?xml version="1.0" standalone="no"?>
<!DOCTYPE svg PUBLIC "-//W3C//DTD SVG 20010904//EN"
 "http://www.w3.org/TR/2001/REC-SVG-20010904/DTD/svg10.dtd">
<svg version="1.0" xmlns="http://www.w3.org/2000/svg"
 width="1124.000000pt" height="1043.000000pt" viewBox="0 0 1124.000000 1043.000000"
 preserveAspectRatio="xMidYMid meet">

<g transform="translate(0.000000,1043.000000) scale(0.100000,-0.100000)"
fill="#000000" stroke="none">
<path d="M8125 9779 c-141 -25 -324 -70 -458 -114 -322 -106 -550 -250 -823
-520 -362 -358 -555 -681 -900 -1500 -37 -88 -86 -205 -109 -260 l-42 -100
-79 -44 c-106 -58 -260 -161 -353 -235 -102 -82 -270 -245 -342 -332 -50 -61
-219 -307 -219 -318 0 -2 -15 -31 -34 -64 -79 -141 -181 -398 -216 -547 -6
-27 -15 -66 -20 -85 -11 -49 -38 -218 -49 -320 -6 -58 -6 -89 1 -98 8 -9 100
-12 426 -10 357 3 416 5 423 18 4 8 47 101 95 205 47 105 100 219 116 255 16
36 50 110 75 165 25 55 78 170 118 255 103 219 127 272 178 385 43 96 247 542
309 675 45 97 98 218 98 223 0 3 24 56 53 118 30 63 92 197 138 299 196 435
329 680 516 955 256 374 461 561 798 725 221 108 480 181 700 196 103 8 118
16 113 61 l-3 28 -200 2 c-158 1 -223 -3 -310 -18z m-2425 -2704 c0 -8 -61
-160 -136 -337 -74 -178 -151 -361 -171 -408 -20 -47 -50 -119 -68 -160 -18
-41 -50 -118 -71 -170 -20 -52 -41 -99 -45 -105 -4 -5 -23 -50 -42 -100 -51
-128 -117 -278 -128 -290 -19 -20 -4 129 37 350 31 165 38 192 86 350 60 196
82 253 143 376 79 156 176 297 285 412 91 96 110 110 110 82z"/>
<path d="M1283 7943 c-16 -6 -17 -45 -1 -61 7 -7 37 -12 67 -12 125 0 296 -68
414 -165 129 -107 191 -204 322 -510 26 -60 62 -144 80 -185 18 -41 59 -133
90 -205 31 -71 65 -148 75 -170 10 -22 30 -68 44 -103 15 -34 40 -92 56 -127
16 -35 40 -90 54 -122 13 -32 38 -87 54 -123 28 -59 114 -256 228 -515 24 -55
74 -170 112 -255 l68 -155 266 -3 c207 -2 267 0 270 10 4 12 -178 480 -341
878 -78 190 -241 595 -257 640 -12 33 -96 243 -114 285 -24 57 -113 282 -144
367 -43 115 -46 180 -15 265 42 112 160 193 284 193 53 0 85 16 85 44 0 36 -6
36 -854 35 -457 0 -837 -3 -843 -6z"/>
<path d="M7485 7531 c-137 -12 -234 -29 -382 -66 -112 -29 -162 -48 -296 -115
-357 -180 -521 -339 -686 -668 -99 -197 -132 -321 -153 -575 -10 -118 -9 -155
3 -217 14 -74 14 -75 47 -78 17 -2 32 0 33 5 0 4 2 78 3 163 2 134 5 168 29
251 53 190 108 310 208 458 148 220 416 420 689 514 263 91 394 112 690 111
230 0 345 -13 535 -60 437 -108 791 -387 1052 -827 264 -446 376 -975 334
-1587 -38 -552 -209 -1016 -514 -1395 -111 -138 -377 -377 -501 -450 -19 -11
-66 -39 -105 -63 -38 -23 -89 -51 -113 -61 -24 -10 -68 -30 -98 -44 -154 -70
-403 -136 -619 -163 -191 -24 -558 -21 -726 5 -403 64 -724 199 -1024 430
-111 85 -301 275 -383 381 -196 255 -352 600 -421 930 -39 185 -41 209 -28
245 7 19 9 39 6 45 -8 13 -562 14 -570 0 -3 -5 6 -76 20 -157 44 -243 48 -205
-45 -424 -93 -219 -103 -244 -194 -459 -35 -85 -71 -156 -78 -157 -9 -2 -85
178 -226 535 -117 295 -225 566 -241 602 l-27 65 -252 3 c-214 2 -253 0 -258
-12 -3 -8 10 -50 29 -93 75 -167 193 -436 262 -598 68 -158 138 -318 280 -640
31 -71 63 -143 70 -160 8 -16 25 -55 38 -85 13 -30 44 -100 67 -155 23 -55 56
-129 72 -165 17 -36 38 -85 48 -110 31 -78 55 -115 79 -118 33 -5 48 13 56 66
7 54 12 69 61 212 35 102 124 317 186 450 17 36 63 137 103 225 164 359 164
359 181 344 9 -7 29 -40 46 -73 37 -73 158 -259 219 -336 72 -92 268 -288 379
-379 264 -219 617 -411 945 -512 131 -41 380 -93 553 -116 207 -27 654 -24
895 6 271 34 585 108 721 171 23 11 83 37 134 59 448 192 886 562 1148 968 64
100 154 268 184 344 12 30 28 68 35 84 55 124 117 382 146 610 15 119 15 525
0 645 -56 436 -137 699 -311 1010 -187 335 -493 659 -799 845 -280 170 -581
277 -903 320 -132 18 -503 27 -633 16z"/>
<path d="M3255 5098 c-29 -16 -35 -29 -33 -68 1 -19 -4 -45 -10 -57 -18 -33
-15 -57 11 -81 20 -19 34 -21 115 -21 95 0 118 9 82 31 -24 15 -26 37 -5 64
25 33 18 44 -25 44 -36 0 -40 -2 -40 -25 0 -29 -15 -33 -29 -6 -7 13 -6 24 4
37 18 24 19 45 3 66 -18 22 -49 29 -73 16z m35 -53 c0 -8 -4 -15 -10 -15 -5 0
-10 7 -10 15 0 8 5 15 10 15 6 0 10 -7 10 -15z m8 -113 c15 -23 15 -24 -14
-20 -22 2 -30 9 -32 26 -5 31 24 27 46 -6z"/>
<path d="M3784 5096 c-100 -44 -99 -197 1 -225 74 -20 136 21 149 99 14 90
-70 161 -150 126z m72 -44 c37 -24 40 -88 7 -124 -37 -41 -103 -5 -103 54 0
54 58 96 96 70z"/>
<path d="M4594 5096 c-68 -30 -58 -109 16 -131 35 -10 50 -24 43 -41 -7 -18
-42 -18 -67 1 -29 22 -48 19 -44 -7 2 -12 17 -30 35 -41 27 -15 38 -16 73 -7
46 12 66 43 56 83 -4 17 -20 31 -56 46 -50 22 -65 46 -34 58 9 3 25 1 35 -5
26 -16 49 -15 49 2 0 16 -26 46 -40 46 -5 0 -14 2 -22 5 -7 2 -27 -2 -44 -9z"/>
<path d="M5050 5096 c-76 -26 -97 -150 -35 -203 46 -40 155 -27 155 19 0 17
-4 19 -22 13 -54 -17 -74 -16 -98 3 -53 43 -15 142 50 129 58 -12 64 -12 68 6
2 12 -7 22 -32 32 -41 17 -40 17 -86 1z"/>
<path d="M6004 5096 c-17 -8 -41 -27 -53 -42 -19 -24 -22 -38 -19 -83 6 -72
37 -101 107 -101 81 0 124 53 113 142 -8 68 -84 112 -148 84z m80 -52 c40 -39
12 -134 -38 -134 -40 0 -66 28 -66 69 0 65 64 106 104 65z"/>
<path d="M6500 5096 c-73 -26 -97 -133 -44 -195 23 -27 32 -31 77 -31 78 1
117 42 117 123 0 40 -5 53 -29 78 -16 16 -36 29 -44 29 -9 0 -21 2 -29 4 -7 3
-29 -1 -48 -8z m82 -53 c25 -23 24 -87 -2 -113 -42 -42 -102 -10 -102 55 0 63
61 97 104 58z"/>
<path d="M2740 5083 c0 -25 50 -186 63 -201 5 -7 22 -12 36 -10 23 3 30 15 65
106 29 76 36 106 28 114 -16 16 -38 -5 -53 -50 -7 -20 -19 -53 -27 -72 -17
-41 -22 -34 -53 64 -15 52 -24 66 -39 66 -12 0 -20 -7 -20 -17z"/>
<path d="M5457 5094 c-12 -12 -8 -212 4 -220 17 -10 32 12 33 47 1 27 6 34 29
40 16 4 40 4 53 -1 19 -8 24 -17 24 -45 0 -23 5 -38 16 -42 26 -10 34 16 34
113 0 70 -4 95 -15 104 -21 17 -33 4 -37 -40 -3 -34 -4 -35 -48 -35 -43 0 -45
1 -55 39 -11 39 -25 53 -38 40z"/>
<path d="M6944 5087 c-2 -7 -3 -58 -2 -113 l3 -99 68 -3 c62 -3 68 -1 65 15
-2 13 -15 19 -43 23 l-40 5 -3 80 c-3 74 -12 105 -34 105 -5 0 -11 -6 -14 -13z"/>
</g>
</svg>
